<svg xmlns="http://www.w3.org/2000/svg" viewBox="0 0 120 120">
  <defs>
    <linearGradient id="g" x1="0" x2="1" y1="0" y2="1">
      <stop offset="0%" stop-color="#00B4D8"/>
      <stop offset="50%" stop-color="#8A2BE2"/>
      <stop offset="100%" stop-color="#FF3CAC"/>
    </linearGradient>
  </defs>
  <circle cx="60" cy="60" r="56" fill="url(#g)" />
  <path d="M84.5 46.5c-3-4.5-10.5-6-16-4-6 2-11 7-15 11-5 5-8 11-7 18 .5 4 3 7 6 8 3 1 6-1 8-3 3-3 4-7 5-11 .8-4 4-7 7-10 3-2 7-4 10-6 3-1 6-3 6-6 0-2-2-4-3-6z" fill="#fff" transform="translate(-6 -6) scale(1.08)"/>
</svg>
