<svg xmlns="http://www.w3.org/2000/svg" viewBox="0 0 512 512">
  <defs>
    <linearGradient id="v" x1="0" x2="1" y1="0" y2="1">
      <stop offset="0%" stop-color="#7a4fb7"/>
      <stop offset="100%" stop-color="#6a4aa8"/>
    </linearGradient>
  </defs>
  <rect width="512" height="512" rx="64" fill="url(#v)" />
  <path d="M142 338c0 0 39-20 58-26 18-6 40-10 66 7 0 0 27-17 55-23 0 0 6-21 8-28 2-7 1-20-8-28-9-8-33-27-42-34-9-7-18-11-30-10-12 1-26 4-48 11-22 6-46 22-46 22s-12-12-23-18c-11-6-30-16-52-6 0 0-14 11-21 22-7 11-18 31-20 56-2 24 3 52 12 77 9 24 31 41 62 41z" fill="#fff" transform="translate(36 30) scale(0.9)"/>
</svg>
